<?xml version="1.0" standalone="no"?>
<!DOCTYPE svg PUBLIC "-//W3C//DTD SVG 20010904//EN"
 "http://www.w3.org/TR/2001/REC-SVG-20010904/DTD/svg10.dtd">
<svg version="1.0" xmlns="http://www.w3.org/2000/svg"
 width="1501.000000pt" height="835.000000pt" viewBox="0 0 1501.000000 835.000000"
 preserveAspectRatio="xMidYMid meet">

<g transform="translate(0.000000,835.000000) scale(0.100000,-0.100000)"
fill="#000000" stroke="none">
<path d="M4080 4759 c-226 -25 -367 -46 -408 -59 -173 -56 -293 -194 -329
-379 l-15 -76 -77 -1 c-140 -2 -234 -41 -395 -164 -257 -195 -334 -215 -641
-160 -222 40 -485 52 -600 27 -155 -33 -267 -96 -417 -234 -112 -103 -171
-134 -257 -141 -100 -7 -171 16 -421 138 -124 60 -256 118 -295 129 -59 17
-206 51 -221 51 -2 0 -4 -25 -4 -55 0 -51 2 -55 28 -61 184 -40 228 -57 461
-172 210 -105 289 -132 397 -139 65 -5 95 -1 150 15 86 26 136 59 244 157 189
173 303 219 535 218 127 0 222 -11 400 -45 163 -31 306 -29 410 6 96 33 157
69 290 171 55 43 121 88 147 101 125 63 288 72 288 16 0 -10 16 -50 35 -91 47
-98 129 -180 227 -226 124 -59 151 -60 583 -13 209 22 385 45 392 50 55 43 44
484 -19 753 -37 161 -71 226 -116 224 -15 -1 -182 -19 -372 -40z"/>
<path d="M6635 4488 l-210 -273 -3 -72 -4 -73 99 0 c55 0 148 -3 208 -7 l108
-6 -6 -99 -5 -99 81 3 82 3 3 93 3 92 63 0 63 0 7 46 c13 96 14 94 -59 94
l-65 0 0 68 c0 37 5 161 10 277 5 115 8 210 7 211 -1 1 -40 4 -87 8 l-85 6
-210 -272z m208 -121 l-6 -167 -106 0 c-58 0 -112 4 -120 9 -10 7 16 47 109
171 67 89 123 160 125 158 2 -2 1 -79 -2 -171z"/>
<path d="M7489 4727 c-165 -62 -252 -220 -253 -457 0 -138 19 -214 75 -300 68
-106 176 -157 308 -148 199 14 330 203 331 475 0 196 -75 347 -207 413 -59 29
-196 38 -254 17z m174 -148 c96 -49 144 -200 118 -368 -23 -147 -85 -230 -181
-239 -73 -7 -129 29 -167 105 -27 55 -28 65 -28 193 0 127 2 139 28 195 33 71
52 93 92 111 37 16 109 18 138 3z"/>
<path d="M8265 4428 l-210 -273 -3 -72 -4 -73 99 0 c55 0 148 -3 208 -7 l108
-6 -6 -99 -5 -99 81 3 82 3 3 93 3 92 63 0 63 0 7 46 c13 96 14 94 -59 94
l-65 0 0 68 c0 37 5 161 10 277 5 115 8 210 7 211 -1 1 -40 4 -87 8 l-85 6
-210 -272z m208 -121 l-6 -167 -106 0 c-58 0 -112 4 -120 9 -10 7 16 47 109
171 67 89 123 160 125 158 2 -2 1 -79 -2 -171z"/>
<path d="M10850 4673 c-23 -21 -36 -46 -48 -94 l-17 -66 -148 39 c-122 33
-153 38 -173 29 -31 -14 -48 -52 -40 -86 8 -33 32 -43 199 -86 81 -22 126 -38
123 -45 -2 -6 -19 -65 -36 -130 -18 -66 -33 -120 -35 -122 -1 -1 -61 13 -133
33 -171 46 -195 46 -221 -2 -15 -29 -4 -71 23 -87 11 -7 80 -28 151 -46 72
-18 133 -36 137 -39 4 -4 1 -28 -7 -55 -26 -87 -17 -143 26 -167 11 -6 154
-47 317 -91 349 -95 439 -106 559 -70 143 44 264 151 312 277 l16 42 95 -19
c144 -29 252 -69 437 -161 92 -47 201 -96 242 -111 214 -77 373 -45 561 114
165 139 281 189 461 198 122 5 231 -6 460 -48 328 -60 445 -37 709 141 69 47
140 91 158 98 31 13 32 15 32 73 0 57 -1 59 -22 52 -47 -14 -126 -59 -233
-131 -60 -41 -131 -86 -157 -99 -119 -60 -249 -68 -452 -29 -497 98 -742 63
-991 -140 -128 -104 -175 -133 -247 -152 -109 -28 -179 -9 -457 126 -229 111
-326 147 -483 177 l-88 17 0 51 c0 73 -25 170 -61 237 -38 70 -136 167 -206
202 -50 26 -669 197 -711 197 -12 0 -35 -12 -52 -27z"/>
<path d="M9697 3006 c-6 -138 -21 -183 -77 -229 -64 -54 40 -55 -2057 12
-1072 34 -1972 66 -2002 72 -97 20 -161 106 -161 217 l0 44 -42 -7 c-238 -38
-498 -105 -604 -156 -64 -30 -124 -87 -124 -117 7 -314 2285 -514 4280 -376
896 61 1505 185 1618 329 29 37 28 58 -7 98 -69 78 -289 150 -647 212 -80 14
-151 25 -158 25 -10 0 -15 -33 -19 -124z"/>
</g>
</svg>
